<?xml version="1.0" standalone="no"?>
<!DOCTYPE svg PUBLIC "-//W3C//DTD SVG 20010904//EN"
 "http://www.w3.org/TR/2001/REC-SVG-20010904/DTD/svg10.dtd">
<svg version="1.0" xmlns="http://www.w3.org/2000/svg"
 width="1280.000000pt" height="1280.000000pt" viewBox="0 0 1280.000000 1280.000000"
 preserveAspectRatio="xMidYMid meet">
<metadata>
Created by potrace 1.14, written by Peter Selinger 2001-2017
</metadata>
<g transform="translate(0.000000,1280.000000) scale(0.100000,-0.100000)"
fill="#000000" stroke="none">
<path d="M1755 11309 c-114 -14 -197 -30 -290 -54 -625 -167 -1129 -629 -1349
-1235 -38 -106 -81 -276 -91 -360 -4 -30 -11 -77 -15 -105 -12 -68 -11 -6221
0 -6310 9 -63 16 -113 25 -170 7 -45 27 -124 51 -202 195 -641 706 -1141 1350
-1318 67 -18 137 -36 155 -39 87 -14 109 -17 174 -25 85 -11 9264 -9 9315 2
19 4 73 15 120 23 330 58 696 237 944 463 55 51 170 170 198 206 12 17 31 39
41 50 80 85 237 369 297 535 34 95 85 288 95 365 4 28 11 77 15 110 11 82 11
6222 0 6310 -9 63 -16 113 -25 170 -25 151 -114 402 -196 554 -285 523 -759
877 -1339 1000 -194 41 -23 40 -4825 39 -2519 0 -4611 -4 -4650 -9z"/>
</g>
</svg>
